<svg xmlns="http://www.w3.org/2000/svg" width="113.897" height="30.783" viewBox="0 0 113.897 30.783"><defs><style>.a{fill:#1b1c20;}.b{fill:#d97d54;}</style></defs><g transform="translate(-145.336 -47.8)"><path class="a" d="M5.089-13.989V.442H8.044V-13.989H12.8V-16.8H.336v2.807Zm15.465,2.463a3.207,3.207,0,0,0-1.995.616,4.4,4.4,0,0,0-1.231,1.379v-1.7H14.521V.442h2.955V-7.192a4.106,4.106,0,0,1,.985-1.071,2.626,2.626,0,0,1,1.675-.5,3.7,3.7,0,0,1,.751.074,2.478,2.478,0,0,1,.6.2l1.034-2.66a5.392,5.392,0,0,0-1.034-.283A5.742,5.742,0,0,0,20.554-11.526Zm8.4,0a10.094,10.094,0,0,0-2.573.32,12.239,12.239,0,0,0-2.106.739l.96,2.438a9.765,9.765,0,0,1,1.945-.665,7.391,7.391,0,0,1,1.5-.2,4.137,4.137,0,0,1,.874.1,2.525,2.525,0,0,1,.825.332A1.958,1.958,0,0,1,31-7.832a1.777,1.777,0,0,1,.246.96v.665a4.785,4.785,0,0,0-1.5-.628,7.085,7.085,0,0,0-1.675-.209,5.767,5.767,0,0,0-1.835.283,4.572,4.572,0,0,0-1.478.8,3.719,3.719,0,0,0-.985,1.244A3.607,3.607,0,0,0,23.411-3.1a3.634,3.634,0,0,0,.345,1.6,3.7,3.7,0,0,0,.936,1.219,4.054,4.054,0,0,0,1.367.763,5.067,5.067,0,0,0,1.613.259A4.864,4.864,0,0,0,29.9.233a4.343,4.343,0,0,0,1.564-1.268V.442H34.2v-7.61a3.94,3.94,0,0,0-1.4-3.177A5.779,5.779,0,0,0,28.952-11.526Zm-.468,9.8a4.209,4.209,0,0,1-.69-.062,2.265,2.265,0,0,1-.677-.222,1.345,1.345,0,0,1-.5-.456,1.351,1.351,0,0,1-.2-.763,1.41,1.41,0,0,1,.209-.788,1.521,1.521,0,0,1,.542-.5,2.655,2.655,0,0,1,.726-.271,3.678,3.678,0,0,1,.788-.086,6.389,6.389,0,0,1,1.281.148,4.9,4.9,0,0,1,1.281.443v1.207a4.411,4.411,0,0,1-1.059.923A3.07,3.07,0,0,1,28.484-1.725Zm14.086-.3A3.3,3.3,0,0,1,41.2-2.291a3.223,3.223,0,0,1-1.034-.726A3.188,3.188,0,0,1,39.5-4.089a3.643,3.643,0,0,1-.234-1.305A3.545,3.545,0,0,1,39.5-6.687a3.476,3.476,0,0,1,.653-1.071A2.973,2.973,0,0,1,41.191-8.5a3.326,3.326,0,0,1,1.354-.271,3.432,3.432,0,0,1,1.6.369,3.681,3.681,0,0,1,1.133.862l2.044-1.822a5.109,5.109,0,0,0-.763-.751,6.532,6.532,0,0,0-1.071-.7,6.338,6.338,0,0,0-1.342-.517,6.2,6.2,0,0,0-1.6-.2,6.415,6.415,0,0,0-2.45.468A6.092,6.092,0,0,0,38.1-9.753,6.253,6.253,0,0,0,36.758-7.8a5.9,5.9,0,0,0-.493,2.4,5.9,5.9,0,0,0,.493,2.4A6.107,6.107,0,0,0,38.1-1.048,6.365,6.365,0,0,0,40.1.257a6.271,6.271,0,0,0,2.45.48A5.949,5.949,0,0,0,44.171.528,7.157,7.157,0,0,0,45.525,0a5.9,5.9,0,0,0,1.084-.714,5.568,5.568,0,0,0,.763-.763l-1.945-1.97a3.444,3.444,0,0,1-1.084.973A3.312,3.312,0,0,1,42.57-2.02Zm5.689-9.21v2.66h2.29V-3.4a4.673,4.673,0,0,0,.3,1.7A3.717,3.717,0,0,0,51.682-.4a3.767,3.767,0,0,0,1.281.837,4.27,4.27,0,0,0,1.6.3A5.574,5.574,0,0,0,56.09.528a4.43,4.43,0,0,0,1.256-.554L56.262-2.439a2.629,2.629,0,0,1-.566.3,1.9,1.9,0,0,1-.69.123,1.778,1.778,0,0,1-.542-.086,1.176,1.176,0,0,1-.48-.3,1.582,1.582,0,0,1-.345-.566,2.559,2.559,0,0,1-.135-.9v-4.7h3.522v-2.66H53.5V-14.7H50.549v3.472ZM59.341-15a1.877,1.877,0,0,0,.566,1.379,1.877,1.877,0,0,0,1.379.566,1.877,1.877,0,0,0,1.379-.566A1.877,1.877,0,0,0,63.231-15a1.877,1.877,0,0,0-.566-1.379,1.877,1.877,0,0,0-1.379-.566,1.877,1.877,0,0,0-1.379.566A1.877,1.877,0,0,0,59.341-15Zm.468,3.768V.442h2.955V-11.231Zm8.127,0H64.66L70.841,1.033l6.181-12.264H73.845L70.89-4.877Z" transform="translate(145 70.958)"/><g transform="translate(228.45 47.8)"><path class="b" d="M30.554,14.615,15.758.263a.8.8,0,0,0-1.143,0L.263,15.059a.8.8,0,0,0,0,1.143l14.8,14.352a.946.946,0,0,0,.572.254.689.689,0,0,0,.572-.254l14.352-14.8a.946.946,0,0,0,.254-.572A.619.619,0,0,0,30.554,14.615ZM15.631,28.9,1.914,15.631,15.186,1.914,28.9,15.186Z" transform="translate(-0.025 -0.025)"/><path class="b" d="M19.689,14.762v3.927H15.762a.772.772,0,0,0-.762.762.819.819,0,0,0,.762.762h3.927v3.864a.772.772,0,0,0,.762.762.819.819,0,0,0,.762-.762V20.213h3.864a.772.772,0,0,0,.762-.762.718.718,0,0,0-.7-.762H21.277V14.762A.772.772,0,0,0,20.515,14,.882.882,0,0,0,19.689,14.762Z" transform="translate(-5.099 -4.734)"/></g></g></svg>